<?xml version="1.0" encoding="utf-8"?>
<!-- Generator: Adobe Illustrator 21.0.0, SVG Export Plug-In . SVG Version: 6.00 Build 0)  -->
<svg version="1.1" id="Layer_1" xmlns="http://www.w3.org/2000/svg" xmlns:xlink="http://www.w3.org/1999/xlink" x="0px" y="0px"
	 viewBox="0 0 32 32" style="enable-background:new 0 0 32 32;" xml:space="preserve">
<style type="text/css">
	.st0{fill:#FFFFFF;}
</style>
<path class="st0" d="M16,0C7.2,0,0,7.2,0,16c0,8.8,7.2,16,16,16s16-7.2,16-16C32,7.2,24.8,0,16,0z M13,23.5c0,0.2-0.1,0.4-0.3,0.4
	c-0.1,0-0.1,0-0.2-0.1l-5.2-2.6c-0.2-0.1-0.3-0.3-0.3-0.5V8.5c0-0.1,0-0.1,0.1-0.2c0,0,0.1-0.1,0.1-0.1c0,0,0.1,0,0.1,0l0.3,0.2
	l5.3,2.7c0,0,0.1,0.1,0.1,0.1V23.5z M13.5,18.2V12l5.5,9L13.5,18.2z M15.4,14l3.5-5.8c0-0.1,0.1-0.1,0.2-0.1c0,0,0,0,0,0
	c0,0,0.1,0,0.1,0l5.8,2.9c0.1,0,0.1,0.1,0.1,0.2l-5.7,9.2L15.4,14z M25.1,23.5c0,0.3-0.2,0.4-0.5,0.3l-5.1-2.5l5.6-9.1V23.5z"/>
</svg>
