<?xml version="1.0" encoding="utf-8"?>
<!-- Generator: Adobe Illustrator 21.0.0, SVG Export Plug-In . SVG Version: 6.00 Build 0)  -->
<svg version="1.1" id="Layer_1" xmlns="http://www.w3.org/2000/svg" xmlns:xlink="http://www.w3.org/1999/xlink" x="0px" y="0px"
	 viewBox="0 0 566.9 566.9" style="enable-background:new 0 0 566.9 566.9;" xml:space="preserve">
<style type="text/css">
	.st0{fill:#FFFFFF;}
</style>
<path class="st0" d="M282.2,145.1c-0.8,0-1.5,0-2.3,0.1v-0.1h-41.2V41.4h-48.5v130.1H190v81.1h0.1v86.7h0.1
	c1.9,47.3,42.1,85,91.4,85c50.5,0,91.5-39.7,91.5-88.6c0-48.7-40.6-88.2-90.8-88.6v0h-43.6V189h44.6v0c83.5,0.6,151,66.3,151,147.3
	c0,81.3-68.1,147.3-152.1,147.3c-82,0-148.8-62.8-152-141.4h-0.2V194.1h0V41.4H84.7V344h0.2c4.2,102.1,90.9,183.6,197.3,183.6
	c109.1,0,197.5-85.6,197.5-191.3C479.7,230.7,391.3,145.1,282.2,145.1z M238.7,291.7h45.9v0c25,0.2,45.2,19.8,45.2,44.1
	c0,24.4-20.4,44.1-45.6,44.1c-24.6,0-44.5-18.8-45.5-42.4h-0.1V291.7z"/>
</svg>
